name analog
datacolumns 19
datarows 18
range 0.392 0.4005
endheader
time	ground_force_vx	ground_force_vy	ground_force_vz	ground_force_px	ground_force_py	ground_force_pz	l_ground_force_vx	l_ground_force_vy	l_ground_force_vz	l_ground_force_px	l_ground_force_py	l_ground_force_pz	ground_torque_x	ground_torque_y	ground_torque_z	l_ground_torque_x	l_ground_torque_y	l_ground_torque_z
0.392	-0.0	-0.0	-0.0	-2.110027551651001	32.68178939819336	-402.7203369140625	9.314632415771484	-34.63826370239258	-416.3001708984375	-0.0	-0.0	-0.0	-0.0	-0.0	-0.0	95067.5	18146.484375	-1748.3125
0.3925	-0.0	-0.0	-0.0	-1.9919183254241943	32.53791046142578	-399.8945617675781	9.657434463500977	-34.393104553222656	-415.4904174804688	-0.0	-0.0	-0.0	-0.0	-0.0	-0.0	94969.3203125	18323.908203125	-1637.4161376953125
0.393	-0.0	-0.0	-0.0	-2.051841735839844	32.03361892700195	-400.3168640136719	9.499363899230955	-34.36908721923828	-413.8391723632813	-0.0	-0.0	-0.0	-0.0	-0.0	-0.0	94693.7578125	18039.62890625	-1625.4688720703125
0.3935	-0.0	-0.0	-0.0	-2.35524582862854	32.390079498291016	-398.9989013671875	9.427305221557615	-34.734283447265625	-414.2824401855469	-0.0	-0.0	-0.0	-0.0	-0.0	-0.0	94630.390625	18038.90234375	-1513.3642578125
0.394	-0.0	-0.0	-0.0	-2.64065933227539	31.587785720825195	-398.386962890625	9.492053985595703	-34.84630584716797	-414.5101013183594	-0.0	-0.0	-0.0	-0.0	-0.0	-0.0	94412.0703125	18248.509765625	-1696.9439697265625
0.3945	-0.0	-0.0	-0.0	-3.1404995918273926	31.605785369873047	-398.7650146484375	9.273536682128906	-34.79874420166016	-411.394287109375	-0.0	-0.0	-0.0	-0.0	-0.0	-0.0	93918.640625	18119.318359375	-1663.4296875
0.395	-0.0	-0.0	-0.0	-2.890228271484375	31.659502029418945	-394.2640380859375	9.338408470153809	-34.96355056762695	-410.9514770507813	-0.0	-0.0	-0.0	-0.0	-0.0	-0.0	93623.9765625	17797.158203125	-1633.7613525390625
0.3955	-0.0	-0.0	-0.0	-2.5332698822021484	31.1182918548584	-395.3484191894531	9.793734550476074	-34.557376861572266	-410.3691101074219	-0.0	-0.0	-0.0	-0.0	-0.0	-0.0	93249.203125	17965.568359375	-1617.485107421875
0.396	-0.0	-0.0	-0.0	-2.664562225341797	30.874345779418945	-394.715576171875	10.284674644470217	-34.49249267578125	-408.5538635253906	-0.0	-0.0	-0.0	-0.0	-0.0	-0.0	93072.609375	17868.21484375	-1666.582275390625
0.3965	-0.0	-0.0	-0.0	-3.075502157211304	30.79681205749512	-395.7755737304688	9.89399528503418	-34.67525863647461	-408.322021484375	-0.0	-0.0	-0.0	-0.0	-0.0	-0.0	92928.8125	17571.20703125	-1522.511474609375
0.397	-0.0	-0.0	-0.0	-3.0331573486328125	31.273088455200195	-393.5813293457031	10.08952808380127	-34.58058166503906	-407.4136962890625	-0.0	-0.0	-0.0	-0.0	-0.0	-0.0	92504.6328125	17473.16796875	-1599.5364990234375
0.3975	-0.0	-0.0	-0.0	-3.665264844894409	30.939891815185547	-395.65380859375	10.031044006347656	-34.92205047607422	-405.9711608886719	-0.0	-0.0	-0.0	-0.0	-0.0	-0.0	92390.484375	17547.5078125	-1720.5828857421875
0.398	-0.0	-0.0	-0.0	-3.4829189777374268	31.207244873046875	-396.3138732910156	9.94728183746338	-34.84523391723633	-405.4293823242188	-0.0	-0.0	-0.0	-0.0	-0.0	-0.0	92328.5546875	17313.244140625	-1781.6185302734375
0.3985	-0.0	-0.0	-0.0	-3.525583982467652	31.1528434753418	-395.3001708984375	9.905158996582031	-34.598899841308594	-406.7157897949219	-0.0	-0.0	-0.0	-0.0	-0.0	-0.0	92086.4609375	17171.931640625	-1795.664306640625
0.399	-0.0	-0.0	-0.0	-3.672412633895874	31.0949649810791	-396.1306457519531	10.433032035827637	-34.67991638183594	-404.5461120605469	-0.0	-0.0	-0.0	-0.0	-0.0	-0.0	92350.2265625	16859.15234375	-1725.7864990234375
0.3995	-0.0	-0.0	-0.0	-3.847567796707153	30.772998809814453	-393.1804809570313	10.001168251037598	-34.840972900390625	-405.3650512695313	-0.0	-0.0	-0.0	-0.0	-0.0	-0.0	92368.4453125	16784.873046875	-1700.3282470703125
0.4	-0.0	-0.0	-0.0	-3.6056485176086426	31.494741439819336	-394.27447509765625	10.012764930725098	-34.499271392822266	-404.7576904296875	-0.0	-0.0	-0.0	-0.0	-0.0	-0.0	92257.359375	16828.349609375	-1773.757080078125
0.4005	-0.0	-0.0	-0.0	-4.071751117706299	31.03783798217773	-392.9532470703125	9.970152854919434	-34.33420944213867	-402.6171569824219	-0.0	-0.0	-0.0	-0.0	-0.0	-0.0	91936.46875	16643.3828125	-1903.9791259765625
